<svg width="288" height="301" viewBox="0 0 288 301" fill="none" xmlns="http://www.w3.org/2000/svg">
<ellipse cx="144" cy="150.5" rx="144" ry="150.5" fill="#2B2B2B"/>
<path d="M86 169.861L83.5 169.181V93.3408L104 84.6708C115.27 79.9108 126.75 75.0208 129.49 73.8108C134.53 71.6108 137.41 70.7308 138.96 71.0708C139.78 71.3008 140.22 71.9108 140.46 72.9008C140.66 73.7608 140.85 75.6008 141.01 77.8608C141.19 84.4208 142 93.5 140.46 95C138.92 96.5 135.06 96.5608 132.08 97.7408C129.1 98.9108 123.41 101.461 119.44 103.401C113.63 106.231 112.1 107.451 111.69 109.601C111.41 111.071 111.33 124.661 111.53 139.801C111.67 150.831 111.59 160.531 111.34 165.441C111.2 167.381 111.05 168.591 110.93 168.881C110.9 168.931 110.86 168.981 110.81 169.021C110 169.671 105.69 170.161 100.82 170.381C100.33 170.391 99.82 170.401 99.29 170.411C93.35 170.481 87.38 170.241 86 169.861ZM158 170C154.43 169.82 150.74 170.28 149.5 170H147V71.7708L149.75 71.8308C151.26 71.8608 155.88 73.5508 160 75.5808L167.5 79.2708L168.5 152.271L186.14 152.541C203.43 152.811 203.79 152.861 204.38 155.041C205.56 159.441 205.6 168.17 204 169.5C202.47 170.77 175.5 170 158 170Z" fill="#E34F26"/>
<path d="M82 207C82.8 208.14 137.74 228.931 142.06 230.491C176.68 217.181 204.48 208.601 205.75 206.981C207.07 205.301 207.51 188.271 206.34 183.911C205.79 181.871 205.26 181.631 202.32 182.111C200.46 182.411 196.59 183.741 193.72 185.081C190.85 186.411 186.48 188.291 184 189.271C181.52 190.251 177.48 191.931 175 193.001C170.9 194.791 166.92 196.511 161.5 198.831C153.04 202.461 146.26 204.771 144.08 204.771C142.66 204.771 135.43 202.251 128 199.171C120.57 196.091 113.15 193.021 111.5 192.341C109.85 191.661 106.93 190.411 105 189.551C94.45 184.831 92.14 183.891 88.33 182.751C81.36 180.661 81 181.191 81 193.521C81 201.341 80.95 205.5 82 207Z" fill="#E34F26"/>
</svg>
